<svg width="24" height="24" viewBox="0 0 24 24" fill="none" xmlns="http://www.w3.org/2000/svg">
<path d="M4.79476 7.05613C4.79476 5.80713 5.80676 4.79513 7.05576 4.79413H8.08476C8.68176 4.79413 9.25376 4.55713 9.67776 4.13713L10.3968 3.41713C11.2778 2.53113 12.7098 2.52713 13.5958 3.40813L13.5968 3.40913L13.6058 3.41713L14.3258 4.13713C14.7498 4.55813 15.3218 4.79413 15.9188 4.79413H16.9468C18.1958 4.79413 19.2088 5.80613 19.2088 7.05613V8.08313C19.2088 8.68013 19.4448 9.25313 19.8658 9.67713L20.5858 10.3971C21.4718 11.2781 21.4768 12.7101 20.5958 13.5961L20.5948 13.5971L20.5858 13.6061L19.8658 14.3261C19.4448 14.7491 19.2088 15.3211 19.2088 15.9181V16.9471C19.2088 18.1961 18.1968 19.2081 16.9478 19.2081H16.9468H15.9168C15.3198 19.2081 14.7468 19.4451 14.3238 19.8661L13.6038 20.5851C12.7238 21.4711 11.2928 21.4761 10.4068 20.5971C10.4058 20.5961 10.4048 20.5951 10.4038 20.5941L10.3948 20.5851L9.67576 19.8661C9.25276 19.4451 8.67976 19.2091 8.08276 19.2081H7.05576C5.80676 19.2081 4.79476 18.1961 4.79476 16.9471V15.9161C4.79476 15.3191 4.55776 14.7471 4.13676 14.3241L3.41776 13.6041C2.53176 12.7241 2.52676 11.2931 3.40676 10.4071C3.40676 10.4061 3.40776 10.4051 3.40876 10.4041L3.41776 10.3951L4.13676 9.67513C4.55776 9.25113 4.79476 8.67913 4.79476 8.08113V7.05613" stroke="#005FBB" stroke-width="1.5" stroke-linecap="round" stroke-linejoin="round"/>
<path d="M12.0112 6.37305V7.87117H10.8876C9.86891 7.87117 9.01498 8.72511 9.01498 9.74383V10.4929C9.01498 11.5116 9.67416 12.3506 10.6479 12.6053L14.4831 13.594C14.6929 13.6539 14.9925 14.0285 14.9925 14.2532V15.0023C14.9925 15.212 14.8277 15.3768 14.618 15.3768H10.8727C10.6929 15.3768 10.5581 15.3169 10.4981 15.2869V13.8787H9V15.3768C9 15.8862 9.29963 16.3206 9.65918 16.5453C10.0037 16.785 10.4382 16.8749 10.8727 16.8749H11.9963V18.373H13.4944V16.8749H14.618C15.6517 16.8749 16.4906 16.036 16.4906 15.0023V14.2532C16.4906 13.2345 15.8315 12.3955 14.8577 12.1408L11.0225 11.1521C10.8127 11.0921 10.5131 10.7176 10.5131 10.4929V9.74383C10.5131 9.5341 10.6779 9.3693 10.8876 9.3693H14.633C14.7978 9.3693 14.9476 9.42923 15.0075 9.45919V10.8674H16.5056V9.3693C16.5056 8.85994 16.206 8.42548 15.8464 8.20076C15.5019 7.96106 15.0674 7.87117 14.633 7.87117H13.5094V6.37305L12.0112 6.37305Z" fill="#005FBB"/>
</svg>
